# xmcd
#
# Track frame offsets: 
#        150
#        18723
#        32571
#        51819
#        71142
#        85365
#        108363
#        121686
#        135609
#        149157
#        164055
#        181878
#        202851
#        217149
#        232947
#        250920
#        261543
#
# Disc length: 3731 seconds
#
# Revision: 0
# Processed by: cddbd v1.5.2PL0 Copyright (c) Steve Scherf et al.
# Submitted via: ExactAudioCopyFreeDBPlugin 1.0
#
DISCID=030e9111
DTITLE=Mick Abrahams - Revived!
DYEAR=2015
DGENRE=Blues
TTITLE0=Summer Day
TTITLE1=What About Us?
TTITLE2=Elz. and Abys Jam
TTITLE3=On The Road Again
TTITLE4=Nadine
TTITLE5=Remember
TTITLE6=I Can Tell
TTITLE7=I'm A Hog For You
TTITLE8=Bright Lights, Big City
TTITLE9=Dragonfly
TTITLE10=Boney Moronie
TTITLE11=Goodnight Irene
TTITLE12=Poison Ivy
TTITLE13=Red River Rock
TTITLE14=North By North West
TTITLE15=Hungry For Love
TTITLE16=Summer Day With Hammond
EXTD=
EXTT0=
EXTT1=
EXTT2=
EXTT3=
EXTT4=
EXTT5=
EXTT6=
EXTT7=
EXTT8=
EXTT9=
EXTT10=
EXTT11=
EXTT12=
EXTT13=
EXTT14=
EXTT15=
EXTT16=
PLAYORDER=
